<svg width="40" height="40" viewBox="0 0 40 40" fill="none" xmlns="http://www.w3.org/2000/svg">
<path d="M30 13.3335H31.6667C33.4348 13.3335 35.1305 14.0359 36.3807 15.2861C37.631 16.5364 38.3333 18.2321 38.3333 20.0002C38.3333 21.7683 37.631 23.464 36.3807 24.7142C35.1305 25.9645 33.4348 26.6668 31.6667 26.6668H30" stroke="white" stroke-width="2" stroke-linecap="round" stroke-linejoin="round"/>
<path d="M3.3335 13.3335H30.0002V28.3335C30.0002 30.1016 29.2978 31.7973 28.0475 33.0475C26.7973 34.2978 25.1016 35.0002 23.3335 35.0002H10.0002C8.23205 35.0002 6.53636 34.2978 5.28612 33.0475C4.03588 31.7973 3.3335 30.1016 3.3335 28.3335V13.3335Z" fill="white" stroke="white" stroke-width="2" stroke-linecap="round" stroke-linejoin="round"/>
<path d="M10 1.6665V6.6665" stroke="white" stroke-width="2" stroke-linecap="round" stroke-linejoin="round"/>
<path d="M16.6665 1.6665V6.6665" stroke="white" stroke-width="2" stroke-linecap="round" stroke-linejoin="round"/>
<path d="M23.3335 1.6665V6.6665" stroke="white" stroke-width="2" stroke-linecap="round" stroke-linejoin="round"/>
</svg>
